<svg width="14" height="14" viewBox="0 0 14 14" fill="none" xmlns="http://www.w3.org/2000/svg">
<g clip-path="url(#clip0_129_3385)">
<path fill-rule="evenodd" clip-rule="evenodd" d="M3.2501 13.4C1.78654 13.4 0.600098 12.2136 0.600098 10.75V3.25001C0.600098 1.78645 1.78654 0.600006 3.2501 0.600006H10.7501C12.2136 0.600006 13.4001 1.78645 13.4001 3.25001V10.75C13.4001 12.2136 12.2136 13.4 10.7501 13.4H3.2501ZM10.2729 5.46336V6.07927L11.0001 6.71859V8.24284H10.2729V11H9.56433V10.4873C9.56433 9.22851 8.47162 8.20766 7.12354 8.20671H7.12242H7.1219H7.12143C7.11816 8.20671 7.11507 8.20704 7.11214 8.20704C6.28792 8.21204 5.62129 8.83706 5.62129 9.60806L5.62114 10.9993L4.65051 11V7.92677H4.17515C3.92794 7.92677 3.72725 7.72623 3.72725 7.47883V4.69076H3.0001V3.72509H3.72725V3.44792H4.6785V6.58317L6.07682 3.27978L6.53856 3.28058L7.36376 5.01548L8.20294 3.00001H8.7344L10.2729 5.46336Z" fill="white"/>
</g>
<defs>
<clipPath id="clip0_129_3385">
<rect width="12.8" height="12.8" fill="white" transform="translate(0.600098 0.600006)"/>
</clipPath>
</defs>
</svg>
