<svg width="117" height="32" viewBox="0 0 117 32" fill="none" xmlns="http://www.w3.org/2000/svg">
<path fill-rule="evenodd" clip-rule="evenodd" d="M0.43335 0.566528H1.65408V24.6221H0.43335V0.566528ZM2.88428 0.566528H4.10501V24.6221H2.88428V0.566528ZM5.3352 0.566528H6.55593V24.6221H5.3352V0.566528ZM7.78613 0.566528H12.688V24.6221H7.78613V0.566528ZM17.5898 0.566528H18.8106V24.6221H17.5898V0.566528ZM20.0408 0.566528H21.2615V24.6221H20.0408V0.566528ZM22.4917 0.566528H24.9426V24.6221H22.4917V0.566528ZM28.6143 0.566528H29.835V24.6221H28.6143V0.566528ZM31.0652 0.566528H35.9671V24.6221H31.0652V0.566528ZM37.1878 0.566528H38.4085V24.6221H37.1878V0.566528ZM42.0896 0.566528H43.3104V24.6221H42.0896V0.566528ZM45.7613 0.566528H46.982V24.6221H45.7613V0.566528ZM49.433 0.566528H50.6537V24.6221H49.433V0.566528ZM54.3348 0.566528H55.5555V24.6221H54.3348V0.566528ZM56.7857 0.566528H58.0065V24.6221H56.7857V0.566528ZM59.2367 0.566528H60.4574V24.6221H59.2367V0.566528ZM61.6876 0.566528H62.9083V24.6221H61.6876V0.566528ZM65.3592 0.566528H69.0309V24.6221H65.3592V0.566528ZM70.2611 0.566528H71.4818V24.6221H70.2611V0.566528ZM75.163 0.566528H76.3837V24.6221H75.163V0.566528ZM78.8346 0.566528H80.0553V24.6221H78.8346V0.566528ZM81.2855 0.566528H84.9572V24.6221H81.2855V0.566528ZM87.4081 0.566528H91.0798V24.6221H87.4081V0.566528ZM92.31 0.566528H93.5307V24.6221H92.31V0.566528ZM95.9816 0.566528H97.2024V24.6221H95.9816V0.566528ZM102.104 0.566528H103.325V24.6221H102.104V0.566528ZM104.555 0.566528H108.227V24.6221H104.555V0.566528ZM110.678 0.566528H111.898V24.6221H110.678V0.566528ZM113.129 0.566528H114.349V24.6221H113.129V0.566528ZM115.58 0.566528H116.8V24.6221H115.58V0.566528Z" fill="black"/>
<path d="M62.085 31.0178H61.82V31.7534H61.1198V31.0178H58.8865V30.3766C59.4732 30.3766 59.9463 29.9051 59.9463 29.3204C59.9463 28.7358 59.4732 28.2643 58.8865 28.2643V27.6231C59.8139 27.6231 60.5804 28.3775 60.5804 29.311C60.5804 29.7071 60.4384 30.0748 60.2018 30.3672H61.1198V27.6514H61.82V30.3672H62.085V31.0084V31.0178Z" fill="black"/>
<path d="M65.1226 31.8381C64.1858 31.8381 63.4287 31.0648 63.4287 30.1501C63.4287 29.8201 63.5233 29.5183 63.6842 29.2637L64.6021 27.6889H65.3497L64.8766 28.4716C64.9523 28.4622 65.0374 28.4528 65.1226 28.4528C66.05 28.4528 66.8165 29.226 66.8165 30.1407C66.8165 31.0554 66.0405 31.8286 65.1226 31.8286V31.8381ZM65.1226 31.1968C65.7093 31.1968 66.1825 30.7253 66.1825 30.1407C66.1825 29.556 65.7093 29.0846 65.1226 29.0846C64.5359 29.0846 64.0627 29.556 64.0627 30.1407C64.0627 30.7253 64.5359 31.1968 65.1226 31.1968ZM65.1226 29.7635C65.3497 29.7635 65.5106 29.9332 65.5106 30.1501C65.5106 30.367 65.3402 30.5462 65.1226 30.5462C64.9049 30.5462 64.7251 30.3764 64.7251 30.1501C64.7251 29.9238 64.8955 29.7635 65.1226 29.7635Z" fill="black"/>
<path d="M69.7122 31.8381C68.7754 31.8381 68.0183 31.0648 68.0183 30.1501C68.0183 29.8201 68.1129 29.5183 68.2738 29.2637L69.1917 27.6889H69.9393L69.4662 28.4716C69.5419 28.4622 69.627 28.4528 69.7122 28.4528C70.6396 28.4528 71.4061 29.226 71.4061 30.1407C71.4061 31.0554 70.6301 31.8286 69.7122 31.8286V31.8381ZM69.7122 31.1968C70.2989 31.1968 70.7721 30.7253 70.7721 30.1407C70.7721 29.556 70.2989 29.0846 69.7122 29.0846C69.1255 29.0846 68.6523 29.556 68.6523 30.1407C68.6523 30.7253 69.1255 31.1968 69.7122 31.1968ZM69.7122 29.7635C69.9393 29.7635 70.1002 29.9332 70.1002 30.1501C70.1002 30.367 69.9298 30.5462 69.7122 30.5462C69.4945 30.5462 69.3147 30.3764 69.3147 30.1501C69.3147 29.9238 69.4851 29.7635 69.7122 29.7635Z" fill="black"/>
<path d="M72.6837 29.2733L73.611 27.6891H74.3586L73.8949 28.4718C73.9801 28.4624 74.0463 28.4529 74.1315 28.4529C75.0684 28.4529 75.8254 29.2262 75.8254 30.1409C75.8254 31.0556 75.0684 31.8288 74.1315 31.8288C73.6867 31.8288 73.2893 31.6591 72.9865 31.3762L73.4123 30.9141C73.6016 31.0839 73.8571 31.1876 74.1315 31.1876C74.7182 31.1876 75.1914 30.7161 75.1914 30.1314C75.1914 29.5468 74.7182 29.0753 74.1315 29.0753C73.753 29.0753 73.4218 29.2733 73.2325 29.5751L73.2041 29.6222L72.6553 29.3205L72.6931 29.2545L72.6837 29.2733ZM75.0684 27.6325C75.2955 27.6325 75.4563 27.8023 75.4563 28.0192C75.4563 28.236 75.286 28.4152 75.0684 28.4152C74.8507 28.4152 74.6709 28.2455 74.6709 28.0192C74.6709 27.7928 74.8412 27.6325 75.0684 27.6325Z" fill="black"/>
<path d="M77.3393 29.2826L77.8598 28.3867H77.2163V27.6889H79.0143L78.5506 28.4716C78.6263 28.4622 78.702 28.4528 78.7872 28.4528C79.724 28.4528 80.4811 29.226 80.4811 30.1407C80.4811 31.0554 79.724 31.8286 78.7872 31.8286C78.3424 31.8286 77.945 31.6589 77.6421 31.376L78.068 30.9139C78.2572 31.0837 78.5127 31.1874 78.7872 31.1874C79.3739 31.1874 79.847 30.7159 79.847 30.1313C79.847 29.5466 79.3739 29.0751 78.7872 29.0751C78.4087 29.0751 78.0774 29.2731 77.8882 29.5749L77.8598 29.6221L77.3109 29.3203C77.3109 29.3203 77.3299 29.2826 77.3488 29.2543L77.3393 29.2826Z" fill="black"/>
<path d="M83.4903 30.9895C82.5534 30.9895 81.7964 30.2163 81.7964 29.3016C81.7964 28.3869 82.5534 27.6136 83.4903 27.6136C84.4271 27.6136 85.1842 28.3869 85.1842 29.3016C85.1842 30.2163 84.4082 30.9895 83.4903 30.9895ZM82.2128 30.7255C82.5534 31.0273 83.0077 31.197 83.4997 31.197C83.9918 31.197 84.4366 31.0178 84.7867 30.7255L85.2031 31.2064C84.7489 31.6025 84.1527 31.8382 83.4997 31.8382C82.8468 31.8382 82.2506 31.6025 81.7964 31.2064L82.2128 30.7255ZM83.4903 30.3483C84.077 30.3483 84.5501 29.8768 84.5501 29.2922C84.5501 28.7075 84.077 28.236 83.4903 28.236C82.9036 28.236 82.4304 28.7075 82.4304 29.2922C82.4304 29.8768 82.9036 30.3483 83.4903 30.3483ZM83.4903 28.8961C83.7174 28.8961 83.8877 29.0658 83.8877 29.2827C83.8877 29.4996 83.7174 29.6788 83.4903 29.6788C83.2632 29.6788 83.1023 29.509 83.1023 29.2827C83.1023 29.0564 83.2726 28.8961 83.4903 28.8961Z" fill="black"/>
<path d="M87.4269 31.7532H86.6226L88.6287 28.3867H86.8686V27.6889H89.8021L87.4175 31.7532H87.4269Z" fill="black"/>
<path d="M90.8148 29.2733L91.7421 27.6891H92.4897L92.026 28.4718C92.1017 28.4624 92.1869 28.4529 92.2626 28.4529C93.1994 28.4529 93.9565 29.2262 93.9565 30.1409C93.9565 31.0556 93.1994 31.8288 92.2626 31.8288C91.8178 31.8288 91.4204 31.6591 91.1176 31.3762L91.5434 30.9141C91.7327 31.0839 91.9787 31.1876 92.2626 31.1876C92.8493 31.1876 93.3225 30.7161 93.3225 30.1314C93.3225 29.5468 92.8493 29.0753 92.2626 29.0753C91.8841 29.0753 91.5529 29.2733 91.3636 29.5751L91.3352 29.6222L90.7864 29.3205L90.8242 29.2545L90.8148 29.2733ZM93.1994 27.6325C93.4266 27.6325 93.5874 27.8023 93.5874 28.0192C93.5874 28.236 93.4171 28.4152 93.1994 28.4152C92.9818 28.4152 92.802 28.2455 92.802 28.0192C92.802 27.7928 92.9723 27.6325 93.1994 27.6325Z" fill="black"/>
<path d="M96.0951 31.7532H95.2908L97.2969 28.3867H95.5368V27.6889H98.4703L96.0857 31.7532H96.0951Z" fill="black"/>
<path d="M102.823 31.0178H102.558V31.7534H101.858V31.0178H99.6248V30.3766C100.211 30.3766 100.685 29.9051 100.685 29.3204C100.685 28.7358 100.211 28.2643 99.6248 28.2643V27.6231C100.552 27.6231 101.319 28.3775 101.319 29.311C101.319 29.7071 101.177 30.0748 100.94 30.3672H101.849V27.6514H102.549V30.3672H102.814V31.0084L102.823 31.0178Z" fill="black"/>
<path d="M105.889 27.6042C106.826 27.6042 107.583 28.3775 107.583 29.2922C107.583 29.6222 107.489 29.924 107.328 30.1786L106.419 31.7439H105.672L106.135 30.9612C106.06 30.9707 105.974 30.9801 105.899 30.9801C104.971 30.9801 104.205 30.2069 104.205 29.2922C104.205 28.3775 104.981 27.6042 105.899 27.6042H105.889ZM105.889 30.3483C106.476 30.3483 106.949 29.8768 106.949 29.2922C106.949 28.7075 106.476 28.236 105.889 28.236C105.303 28.236 104.829 28.7075 104.829 29.2922C104.829 29.8768 105.303 30.3483 105.889 30.3483ZM105.889 28.8961C106.116 28.8961 106.287 29.0658 106.287 29.2827C106.287 29.4996 106.116 29.6788 105.889 29.6788C105.662 29.6788 105.501 29.509 105.501 29.2827C105.501 29.0564 105.672 28.8961 105.889 28.8961Z" fill="black"/>
<path d="M109.097 29.2826L109.618 28.3867H108.974V27.6889H110.772L110.309 28.4716C110.384 28.4622 110.47 28.4528 110.545 28.4528C111.482 28.4528 112.239 29.226 112.239 30.1407C112.239 31.0554 111.482 31.8286 110.545 31.8286C110.11 31.8286 109.703 31.6589 109.4 31.376L109.826 30.9139C110.015 31.0837 110.271 31.1874 110.545 31.1874C111.132 31.1874 111.605 30.7159 111.605 30.1313C111.605 29.5466 111.132 29.0751 110.545 29.0751C110.167 29.0751 109.836 29.2731 109.646 29.5749L109.618 29.6221L109.069 29.3203C109.069 29.3203 109.088 29.2826 109.107 29.2543L109.097 29.2826Z" fill="black"/>
<path d="M115.144 27.5665C116.072 27.5665 116.838 28.3397 116.838 29.2544V30.1314C116.838 31.0555 116.062 31.8193 115.144 31.8193C114.226 31.8193 113.45 31.0461 113.45 30.1314V29.2544C113.45 28.3303 114.207 27.5665 115.144 27.5665ZM115.144 31.1875C115.731 31.1875 116.204 30.716 116.204 30.1314V29.2544C116.204 28.6698 115.731 28.1983 115.144 28.1983C114.558 28.1983 114.084 28.6698 114.084 29.2544V30.1314C114.084 30.716 114.558 31.1875 115.144 31.1875ZM115.144 29.1695C115.371 29.1695 115.532 29.3393 115.532 29.5656C115.532 29.7919 115.362 29.9522 115.144 29.9522C114.927 29.9522 114.747 29.7825 114.747 29.5656C114.747 29.3487 114.917 29.1695 115.144 29.1695Z" fill="black"/>
</svg>
