<svg width="161" height="629" viewBox="0 0 161 629" fill="none" xmlns="http://www.w3.org/2000/svg">
<g clip-path="url(#clip0_148_15)">
<path d="M18.5007 550.884C18.5007 546.682 17.2816 542.222 14.5998 539.282L20.6232 536.6C23.4629 539.841 24.9831 545.463 24.9831 550.884C24.9831 557.783 22.502 564.466 17.5398 569.127H36.8006V575.409H0V569.127C14.8005 569.127 18.5007 558.184 18.5007 550.884Z" fill="black"/>
<path d="M37.5894 556.105C37.5894 544.803 46.8684 535.381 58.313 535.381C69.7576 535.381 79.0366 544.803 79.0366 556.105C79.0366 567.406 69.6142 576.829 58.313 576.829C47.0118 576.829 37.5894 567.549 37.5894 556.105ZM58.313 570.447C66.7315 570.447 72.6976 564.667 72.6976 556.105C72.6976 547.543 66.7172 541.72 58.313 541.72C49.9088 541.72 43.9714 547.643 43.9714 556.105C43.9714 564.566 49.751 570.447 58.313 570.447Z" fill="black"/>
<path d="M82.4067 556.105C82.4067 544.803 91.6858 535.381 103.13 535.381C114.575 535.381 123.854 544.803 123.854 556.105C123.854 567.406 114.432 576.829 103.13 576.829C91.8292 576.829 82.4067 567.549 82.4067 556.105ZM103.13 570.447C111.549 570.447 117.515 564.667 117.515 556.105C117.515 547.543 111.535 541.72 103.13 541.72C94.7262 541.72 88.7888 547.643 88.7888 556.105C88.7888 564.566 94.5684 570.447 103.13 570.447Z" fill="black"/>
<path d="M153.498 536.901C156.338 540.142 157.858 545.764 157.858 551.185C157.858 563.806 149.655 575.71 132.875 575.71V569.428C147.676 569.428 151.376 558.485 151.376 551.185C151.376 548.604 150.917 545.922 149.913 543.541H138.21L133.707 551.085H125.948L134.567 536.901H153.513H153.498Z" fill="black"/>
<path d="M29.1852 588.761C32.0248 592.002 33.545 597.624 33.545 603.046C33.545 615.666 25.3416 627.57 8.56195 627.57V621.288C23.3625 621.288 27.0626 610.346 27.0626 603.046C27.0626 600.464 26.6037 597.782 25.5998 595.401H3.24121V588.761H29.1852ZM8.51892 602.802C10.6415 602.802 12.2191 604.365 12.2191 606.502C12.2191 608.639 10.6415 610.202 8.51892 610.202C6.39636 610.202 4.77576 608.581 4.77576 606.502C4.77576 604.422 6.35334 602.802 8.51892 602.802ZM18.3429 602.802C20.4655 602.802 22.0431 604.365 22.0431 606.502C22.0431 608.639 20.4655 610.202 18.3429 610.202C16.2204 610.202 14.5998 608.581 14.5998 606.502C14.5998 604.422 16.1773 602.802 18.3429 602.802Z" fill="black"/>
<path d="M37.5894 607.965C37.5894 596.663 46.8684 587.241 58.313 587.241C69.7576 587.241 79.0366 596.663 79.0366 607.965C79.0366 619.266 69.6142 628.689 58.313 628.689C47.0118 628.689 37.5894 619.41 37.5894 607.965ZM58.313 622.307C66.7315 622.307 72.6976 616.527 72.6976 607.965C72.6976 599.403 66.7172 593.58 58.313 593.58C49.9088 593.58 43.9714 599.503 43.9714 607.965C43.9714 616.426 49.751 622.307 58.313 622.307Z" fill="black"/>
<path d="M82.4067 607.965C82.4067 596.663 91.6858 587.241 103.13 587.241C114.575 587.241 123.854 596.663 123.854 607.965C123.854 619.266 114.432 628.689 103.13 628.689C91.8292 628.689 82.4067 619.41 82.4067 607.965ZM103.13 622.307C111.549 622.307 117.515 616.527 117.515 607.965C117.515 599.403 111.535 593.58 103.13 593.58C94.7262 593.58 88.7888 599.503 88.7888 607.965C88.7888 616.426 94.5684 622.307 103.13 622.307Z" fill="black"/>
<path d="M153.498 588.761C156.338 592.002 157.858 597.624 157.858 603.046C157.858 615.666 149.655 627.57 132.875 627.57V621.288C147.676 621.288 151.376 610.346 151.376 603.046C151.376 600.464 150.917 597.782 149.913 595.401H138.21L133.707 602.945H125.948L134.567 588.761H153.513H153.498Z" fill="black"/>
<path d="M87.6558 6.61159C80.5567 11.0145 75.236 17.2963 71.6936 25.4568L92.3455 38.178C93.3064 35.7112 94.7406 33.4595 96.6193 31.4086C98.4981 29.3721 100.678 27.7801 103.145 26.6615C105.626 25.5285 108.365 24.9691 111.377 24.9691C115.034 24.9691 118.605 25.9157 122.104 27.7945C125.604 29.6733 128.443 32.4125 130.652 36.0123C132.861 39.6121 133.965 43.8286 133.965 48.6618V101.497H158.317V45.1051C158.317 36.9446 156.166 29.4008 151.863 22.4737C147.561 15.5465 141.81 10.068 134.61 6.03791C127.411 2.00786 119.609 0 111.219 0C102.829 0 94.7692 2.20864 87.6702 6.61159H87.6558Z" fill="black"/>
<path d="M121.688 83.1253L101.037 70.232C99.9609 72.8135 98.5124 75.0939 96.6767 77.073C94.8553 79.0666 92.6754 80.6155 90.1513 81.7485C87.6272 82.8815 84.9023 83.4408 82.0053 83.4408C78.3481 83.4408 74.7771 82.4942 71.2777 80.6155C67.7784 78.7367 64.9387 75.9974 62.7301 72.3976C60.5215 68.7978 59.4172 64.5813 59.4172 59.7481V6.92712H35.0652V63.3192C35.0652 71.5945 37.2164 79.167 41.5189 86.0367C45.8214 92.9064 51.5724 98.3563 58.7719 102.386C65.9713 106.416 73.7732 108.424 82.163 108.424C90.5529 108.424 98.4838 106.244 105.626 101.899C112.782 97.5532 118.132 91.3001 121.674 83.1253H121.688Z" fill="black"/>
<path d="M1.23338 396.107V422.926H105.038V457.734C93.9805 448.727 79.8541 443.191 64.7093 443.191C28.8697 443.206 0 472.678 0 507.902H24.3664C24.3664 485.586 42.3794 467.573 64.695 467.573C87.0105 467.573 105.024 485.586 105.024 507.902H129.39V422.926H157.643V396.107H129.39V386.068H105.024V396.107H1.23338Z" fill="black"/>
<path d="M81.8906 315.033C81.8906 323.839 88.244 330.178 96.8346 330.178C105.425 330.178 111.779 323.824 111.779 315.033C111.779 306.241 105.224 300.089 96.8346 300.089C88.4447 300.089 81.8906 306.442 81.8906 315.033Z" fill="black"/>
<path d="M31.5227 315.234C31.5227 318.303 31.7235 321.372 32.1394 324.441L2.03638 306.428V335.097L62.2281 370.105C72.0521 376.244 83.7262 379.93 96.2177 379.93C131.441 379.93 160.913 351.06 160.913 315.234C160.913 279.408 131.426 250.538 96.2177 250.538C61.0091 250.538 31.5227 280.024 31.5227 315.234ZM136.561 315.234C136.561 337.55 118.548 355.563 96.232 355.563C73.9165 355.563 55.9034 337.55 55.9034 315.234C55.9034 292.918 73.9165 274.904 96.232 274.904C118.548 274.904 136.561 292.918 136.561 315.234Z" fill="black"/>
<path d="M81.8906 179.502C81.8906 188.308 88.244 194.647 96.8346 194.647C105.425 194.647 111.779 188.308 111.779 179.502C111.779 170.697 105.224 164.558 96.8346 164.558C88.4447 164.558 81.8906 170.897 81.8906 179.502Z" fill="black"/>
<path d="M31.5228 179.703C31.5228 182.772 31.7236 185.842 32.1395 188.925L2.05078 170.897V199.567L62.2425 234.575C72.0665 240.713 83.7406 244.399 96.2321 244.399C131.455 244.399 160.927 215.529 160.927 179.703C160.927 143.877 131.441 115.007 96.2321 115.007C61.0235 115.007 31.5371 144.494 31.5371 179.703H31.5228ZM136.561 179.703C136.561 202.019 118.548 220.032 96.2321 220.032C73.9166 220.032 55.9035 202.019 55.9035 179.703C55.9035 157.387 73.9166 139.374 96.2321 139.374C118.548 139.374 136.561 157.387 136.561 179.703Z" fill="black"/>
</g>
<defs>
<clipPath id="clip0_148_15">
<rect width="160.927" height="628.689" fill="white"/>
</clipPath>
</defs>
</svg>
