<svg width="226" height="45" viewBox="0 0 226 45" fill="none" xmlns="http://www.w3.org/2000/svg">
<g clip-path="url(#clip0_216_427)">
<path d="M160.134 9.10815C160.134 7.12103 159.559 5.02316 158.287 3.63544L161.139 2.36499C162.483 3.89605 163.201 6.5477 163.201 9.10815C163.201 12.3592 162.026 15.5125 159.683 17.7146H168.787V20.679H151.402V17.7146C158.398 17.7146 160.14 12.5481 160.14 9.10815H160.134Z" fill="black"/>
<path d="M169.159 11.5709C169.159 6.24149 173.544 1.79166 178.954 1.79166C184.364 1.79166 188.75 6.24149 188.75 11.5709C188.75 16.9002 184.293 21.3501 178.954 21.3501C173.616 21.3501 169.159 16.9719 169.159 11.5709ZM178.954 18.3401C182.929 18.3401 185.754 15.6168 185.754 11.5709C185.754 7.52497 182.929 4.7821 178.954 4.7821C174.98 4.7821 172.174 7.57709 172.174 11.5709C172.174 15.5646 174.902 18.3401 178.954 18.3401Z" fill="black"/>
<path d="M190.336 11.5709C190.336 6.24149 194.721 1.79166 200.131 1.79166C205.541 1.79166 209.927 6.24149 209.927 11.5709C209.927 16.9002 205.469 21.3501 200.131 21.3501C194.793 21.3501 190.336 16.9719 190.336 11.5709ZM200.131 18.3401C204.105 18.3401 206.931 15.6168 206.931 11.5709C206.931 7.52497 204.105 4.7821 200.131 4.7821C196.157 4.7821 193.351 7.57709 193.351 11.5709C193.351 15.5646 196.079 18.3401 200.131 18.3401Z" fill="black"/>
<path d="M223.938 2.50833C225.282 4.03939 226 6.69104 226 9.25149C226 15.2063 222.117 20.8224 214.194 20.8224V17.858C221.19 17.858 222.933 12.6915 222.933 9.25149C222.933 8.03316 222.717 6.76271 222.241 5.64211H216.707L214.573 9.20588H210.912L214.984 2.50833H223.938Z" fill="black"/>
<path d="M165.185 25.6761C166.529 27.2072 167.247 29.8588 167.247 32.4193C167.247 38.3741 163.364 43.9901 155.441 43.9901V41.0258C162.437 41.0258 164.18 35.8593 164.18 32.4193C164.18 31.2009 163.964 29.9305 163.488 28.8099H152.929V25.6761H165.191H165.185ZM155.415 32.302C156.42 32.302 157.164 33.0447 157.164 34.0481C157.164 35.0514 156.42 35.7941 155.415 35.7941C154.41 35.7941 153.64 35.0318 153.64 34.0481C153.64 33.0643 154.384 32.302 155.415 32.302ZM160.062 32.302C161.067 32.302 161.811 33.0447 161.811 34.0481C161.811 35.0514 161.067 35.7941 160.062 35.7941C159.057 35.7941 158.287 35.0318 158.287 34.0481C158.287 33.0643 159.031 32.302 160.062 32.302Z" fill="black"/>
<path d="M169.159 34.7322C169.159 29.4028 173.544 24.9529 178.954 24.9529C184.364 24.9529 188.75 29.4028 188.75 34.7322C188.75 40.0615 184.293 44.5114 178.954 44.5114C173.616 44.5114 169.159 40.1332 169.159 34.7322ZM178.954 41.5014C182.929 41.5014 185.754 38.778 185.754 34.7322C185.754 30.6863 182.929 27.9434 178.954 27.9434C174.98 27.9434 172.174 30.7384 172.174 34.7322C172.174 38.7259 174.902 41.5014 178.954 41.5014Z" fill="black"/>
<path d="M190.336 34.7322C190.336 29.4028 194.721 24.9529 200.131 24.9529C205.541 24.9529 209.927 29.4028 209.927 34.7322C209.927 40.0615 205.469 44.5114 200.131 44.5114C194.793 44.5114 190.336 40.1332 190.336 34.7322ZM200.131 41.5014C204.105 41.5014 206.931 38.778 206.931 34.7322C206.931 30.6863 204.105 27.9434 200.131 27.9434C196.157 27.9434 193.351 30.7384 193.351 34.7322C193.351 38.7259 196.079 41.5014 200.131 41.5014Z" fill="black"/>
<path d="M223.938 25.6761C225.282 27.2072 226 29.8588 226 32.4193C226 38.3741 222.117 43.9901 214.194 43.9901V41.0258C221.19 41.0258 222.933 35.8593 222.933 32.4193C222.933 31.2009 222.717 29.9305 222.241 28.8099H216.707L214.573 32.3737H210.912L214.984 25.6761H223.938Z" fill="black"/>
<path d="M140.406 24.5099C139.172 22.5228 137.41 21.0374 135.126 20.0471L131.563 25.8195C132.255 26.0931 132.888 26.4905 133.455 27.0117C134.03 27.5395 134.474 28.1454 134.787 28.836C135.1 29.5266 135.263 30.2954 135.263 31.1358C135.263 32.1587 135.002 33.1555 134.474 34.1328C133.945 35.11 133.181 35.9049 132.17 36.5238C131.165 37.1428 129.984 37.449 128.626 37.449H113.825V44.2573H129.618C131.902 44.2573 134.017 43.6579 135.955 42.4526C137.893 41.2473 139.427 39.6446 140.556 37.6249C141.685 35.6117 142.246 33.4291 142.246 31.0837C142.246 28.7382 141.626 26.484 140.399 24.4969L140.406 24.5099Z" fill="black"/>
<path d="M118.974 34.0285L122.583 28.2561C121.859 27.9564 121.219 27.5525 120.665 27.0378C120.11 26.5296 119.673 25.9172 119.353 25.2136C119.04 24.5099 118.876 23.7477 118.876 22.9333C118.876 21.9104 119.138 20.9136 119.666 19.9363C120.195 18.959 120.958 18.1642 121.97 17.5453C122.975 16.9263 124.156 16.6201 125.513 16.6201H140.314V9.8118H124.521C122.205 9.8118 120.084 10.4112 118.159 11.6165C116.233 12.8218 114.706 14.431 113.577 16.4442C112.448 18.4574 111.887 20.6399 111.887 22.9854C111.887 25.3308 112.494 27.546 113.714 29.5461C114.935 31.5463 116.684 33.0382 118.974 34.035V34.0285Z" fill="black"/>
<path d="M31.3115 0.345302H23.8001V29.3702H14.0504C16.5759 26.2755 18.1225 22.3273 18.1225 18.0925C18.1225 8.07225 9.8607 0 0 0V6.81483C6.25186 6.81483 11.2964 11.851 11.2964 18.0925C11.2964 24.334 6.25186 29.3702 0 29.3702V36.185H23.8001V44.0879H31.3115V36.185H34.1242V29.3702H31.3115V0.345302Z" fill="black"/>
<path d="M54.0219 22.9007C51.5551 22.9007 49.78 24.6728 49.78 27.0769C49.78 29.4809 51.5551 31.2596 54.0219 31.2596C56.4887 31.2596 58.205 29.4288 58.205 27.0769C58.205 24.7249 56.43 22.9007 54.0219 22.9007Z" fill="black"/>
<path d="M53.9631 8.81496C53.1017 8.81496 52.2403 8.87359 51.3854 8.98435L56.4299 0.566803H48.403L38.5945 17.4019C36.8717 20.1513 35.8406 23.4154 35.8406 26.9075C35.8406 36.7518 43.9262 45 53.9631 45C64 45 72.0857 36.7584 72.0857 26.9075C72.0857 17.0566 63.8304 8.81496 53.9631 8.81496ZM53.9631 38.1852C47.7113 38.1852 42.6667 33.149 42.6667 26.9075C42.6667 20.666 47.7113 15.6298 53.9631 15.6298C60.215 15.6298 65.2595 20.666 65.2595 26.9075C65.2595 33.149 60.215 38.1852 53.9631 38.1852Z" fill="black"/>
<path d="M91.9833 22.9007C89.5165 22.9007 87.7415 24.6728 87.7415 27.0769C87.7415 29.4809 89.5165 31.2596 91.9833 31.2596C94.4501 31.2596 96.1665 29.4288 96.1665 27.0769C96.1665 24.7249 94.3914 22.9007 91.9833 22.9007Z" fill="black"/>
<path d="M91.9245 8.81496C91.0631 8.81496 90.2016 8.87359 89.3402 8.98435L94.3848 0.566803H86.3579L76.5494 17.4019C74.8265 20.1513 73.7954 23.4154 73.7954 26.9075C73.7954 36.7518 81.8811 45 91.918 45C101.955 45 110.041 36.7584 110.041 26.9075C110.041 17.0566 101.785 8.81496 91.918 8.81496H91.9245ZM91.9245 38.1852C85.6726 38.1852 80.6281 33.149 80.6281 26.9075C80.6281 20.666 85.6726 15.6298 91.9245 15.6298C98.1763 15.6298 103.221 20.666 103.221 26.9075C103.221 33.149 98.1763 38.1852 91.9245 38.1852Z" fill="black"/>
</g>
<defs>
<clipPath id="clip0_216_427">
<rect width="226" height="45" fill="white"/>
</clipPath>
</defs>
</svg>
