<svg width="262" height="276" viewBox="0 0 262 276" fill="none" xmlns="http://www.w3.org/2000/svg">
<g clip-path="url(#clip0_141_6225)">
<path d="M196.006 208.372C207.127 215.068 201.039 240.219 188.308 229.179C180.123 222.076 178.216 209.995 171.208 201.418C169.165 199.077 163.063 197.941 165.147 202.744C166.297 205.246 167.338 208.304 167.271 211.199C167.163 215.664 161.047 215.271 160.872 210.942C160.953 207.614 160.777 204.489 158.923 201.688C157.611 198.915 150.197 198.333 151.401 202.757C153.552 209.143 148.411 216.529 142.797 211.781C139.78 209.224 140.484 202.689 135.37 204.908C130.039 208.426 133.489 229.801 133.313 236.958C133.029 248.119 118.418 244.737 119.744 236.268C119.027 227.136 136.533 199.267 115.685 205.801C115.536 205.936 115.388 206.072 115.266 206.248C105.309 216.354 108.217 232.521 106.607 244.886C105.971 249.716 103.171 252.584 100.154 254.735C97.1371 256.886 89.7368 256.372 88.2486 251.65C86.8011 247.037 88.871 232.561 95.0401 225.12H95.0537C99.8293 217.815 105.484 209.481 102.819 200.592C102.792 196.601 97.1236 199.659 97.57 196.331C99.3694 185.941 88.2216 190.973 84.7717 195.925C77.0197 204.611 73.651 215.772 67.103 225.526C58.201 235.713 47.9597 230.938 55.6441 218.288C59.9733 211.159 82.5124 196.02 73.5834 190.689C67.8877 189.025 67.4412 188.471 71.4864 183.478C75.7209 178.256 61.0827 171.37 55.5223 176.132V176.159C43.9551 181.138 35.0396 193.747 20.7531 197.413C12.1217 199.632 4.53202 193.233 9.59182 186.942C17.5738 176.998 32.3474 176.511 43.5222 171.898L43.4681 171.817C48.2708 169.855 56.1446 168.272 57.6328 162.806C58.2146 160.669 58.174 158.829 58.9045 156.312C62.0162 145.611 57.6734 147.573 51.1796 143.974C46.2009 135.451 61.5021 136.29 65.7772 133.151C69.1865 121.868 51.4501 121.787 44.3339 121.083C33.1997 120.109 22.9719 119.866 11.6753 117.322C9.57829 116.849 8.06306 115.821 7.44073 113.548C6.34489 109.489 7.56249 104.118 12.7982 104.402C26.5841 104.443 38.963 110.206 52.5054 112.087C57.2405 113.142 62.2867 112.493 66.7107 110.91C71.0399 110.003 77.7773 105.403 77.385 100.614C76.1538 96.5014 73.4886 94.3909 69.7276 91.7798C56.1582 82.3502 40.37 80.0368 32.2527 65.3715C30.8863 62.111 27.3146 57.5518 28.0993 54.1831C29.2493 49.1639 40.14 49.3262 42.6158 54.6431C47.892 61.0422 51.2201 68.5778 57.7005 73.8676C66.4942 79.6985 83.6759 95.5138 92.5373 82.9725C98.1788 71.6489 78.6973 65.5338 82.6206 53.7502C86.3411 48.0139 93.6872 55.1842 96.4201 59.7299C99.9105 65.5474 99.1529 74.6252 104.822 78.7921C105.484 79.2792 106.147 79.8203 107 79.9691C114.359 80.5915 108.813 69.9984 114.048 69.2272C121.218 68.172 124.06 70.4583 122.179 60.9881C121.34 52.2755 119.081 43.9147 118.296 35.2292C117.403 25.7049 114.657 16.0047 117.39 6.85914C120.569 -1.56934 133.57 -2.86811 136.871 6.85914C142.581 23.662 133.043 39.5855 131.189 55.9283C129.376 62.111 129.525 84.4742 140.213 74.3952C145.165 67.4143 147.424 45.1052 156.989 52.8438C161.426 56.4289 149.047 67.3467 147.938 76.3434C147.64 78.7651 149.616 80.6997 151.78 80.7267C155.447 79.9962 155.893 74.8552 158.612 72.9882C161.778 70.8777 162.482 77.3445 161.21 79.3739C158.829 87.0853 166.635 84.366 169.368 80.3074C173.751 72.7988 174.658 63.5316 179.731 56.7265C182.45 52.2485 186.225 49.5968 191.772 49.9215C194.437 50.0703 198.252 52.5055 198.685 55.0625C199.781 61.651 192.096 65.9397 187.496 70.0931C181.057 75.924 174.63 83.2296 170.342 91.5498C165.607 104.037 179.934 95.365 178.96 102.251C178.987 108.853 179.027 107.649 185.278 105.214C195.438 96.9208 203.636 87.0583 215.352 81.1597C229.449 75.4911 245.63 87.4371 225.932 96.7043C212.024 102.779 196.75 101.913 185.778 115.591C183.695 118.188 178.743 118.432 178.919 122.071C179.176 127.415 187.456 130.973 195.194 132.678C210.468 134.206 241.815 120.962 246.766 132.786H246.753C251.123 148.209 232.859 147.356 222.699 144.556C213.309 141.972 203.379 140.7 193.003 142.608C189.404 143.271 184.493 145.882 185.995 150.427C188.93 157.963 203.555 154.851 203.447 163.726C199.997 171.735 190.973 160.087 185.332 163.618C183.722 164.633 181.544 167.352 183.127 169.287C188.092 175.334 197.684 178.73 203.433 184.683C213.228 197.102 195.735 199.902 190.094 191.582C190.094 191.582 190.121 191.582 190.107 191.582C187.835 187.686 185.562 180.786 178.851 180.84C161.656 184.466 176.092 198.293 184.939 202.324H184.912C188.416 204.746 192.732 206.031 196.047 208.372H196.006Z" fill="black"/>
<path d="M244.196 76.844C249.404 66.5079 265.517 70.8101 261.296 82.8508C256.805 91.0087 238.717 87.6941 244.196 76.844Z" fill="black"/>
<path d="M210.211 27.8424C217.801 25.299 220.223 38.4085 213.242 40.4513C203.082 46.6069 198.631 29.8176 210.211 27.8424Z" fill="black"/>
<path d="M3.08436 149.102C-4.09947 145.273 2.67849 134.896 9.13176 137.534C17.5602 140.971 11.7158 153.214 3.08436 149.102Z" fill="black"/>
<path d="M89.0606 263.339C101.832 270.699 89.0335 280.034 81.7144 273.689C78.0616 270.523 83.1079 261.838 89.0606 263.339Z" fill="black"/>
<path d="M58.512 195.519C59.5673 202.974 44.1038 210.117 44.5638 200.701C44.8208 195.573 55.6169 189.999 58.512 195.519Z" fill="black"/>
<path d="M78.7784 40.8572C76.7491 40.9925 75.5585 39.8019 74.0162 38.6655C71.7975 36.0544 72.7851 33.5245 74.855 31.3058C80.6318 27.0848 86.6387 39.7749 78.7784 40.8572Z" fill="black"/>
<path d="M228.259 173.995C224.85 180.773 215.839 171.952 220.926 168.258C225.364 164.782 230.491 169.003 228.259 173.995Z" fill="black"/>
<path d="M150.874 229.882C146.951 227.84 147.789 222.09 153.12 222.942C159.072 223.903 156.948 233.373 150.874 229.882Z" fill="black"/>
<path d="M100.885 156.326L102.224 162.455L96.4069 163.726L95.0676 157.598L76.6277 161.616L75.4778 156.326C80.3211 155.271 83.3786 150.509 82.3234 145.665C81.2681 140.822 76.506 137.764 71.6627 138.82L70.5127 133.53C78.1565 131.866 85.9221 136.736 87.6132 144.515C88.3302 147.803 87.8026 151.131 86.3685 153.958L93.9176 152.308L89.0067 129.782L94.8241 128.511L99.735 151.036L100.885 156.326Z" fill="white"/>
<path d="M114.427 142.581C112.52 143 111.437 144.678 111.843 146.545C112.249 148.412 113.927 149.494 115.834 149.075C117.742 148.655 118.77 146.951 118.378 145.124C117.972 143.257 116.294 142.175 114.427 142.581Z" fill="white"/>
<path d="M137.142 137.629C135.276 138.035 134.193 139.713 134.599 141.58C134.991 143.406 136.683 144.529 138.549 144.123C140.416 143.717 141.526 141.985 141.133 140.159C140.728 138.292 139.05 137.21 137.142 137.629Z" fill="white"/>
<path d="M148.168 130.77L137.724 119.365L131.501 120.718L136.831 126.4C136.141 126.454 135.465 126.563 134.802 126.698C130.161 127.712 126.482 130.986 124.696 135.113C121.354 132.096 116.646 130.648 112.006 131.663C111.343 131.812 110.68 132.001 110.031 132.231L112.52 124.844L106.297 126.197L101.548 140.917C100.682 143.338 100.425 146.044 101.02 148.763C102.684 156.407 110.342 161.44 118.121 159.749C122.761 158.734 126.441 155.46 128.227 151.334C131.568 154.351 136.277 155.798 140.917 154.784C148.696 153.093 153.566 145.327 151.902 137.683C151.307 134.977 149.954 132.61 148.168 130.77ZM116.971 154.459C112.128 155.514 107.365 152.457 106.31 147.613C105.255 142.77 108.312 138.008 113.156 136.953C117.999 135.897 122.761 138.955 123.816 143.798C124.872 148.642 121.814 153.404 116.971 154.459ZM139.767 149.494C134.924 150.549 130.161 147.492 129.106 142.648C128.051 137.805 131.109 133.043 135.952 131.988C140.795 130.932 145.557 133.99 146.613 138.833C147.668 143.677 144.61 148.439 139.767 149.494Z" fill="white"/>
<path d="M107.081 163.618L108.786 163.253L105.823 169.057L104.118 169.422L107.081 163.618Z" fill="white"/>
<path d="M109.95 162.996L111.654 162.617L108.691 168.421L106.987 168.8L109.95 162.996Z" fill="white"/>
<path d="M112.899 162.346L114.603 161.981L111.654 167.785L109.949 168.15L112.899 162.346Z" fill="white"/>
<path d="M123.248 162.441L138.739 159.059L137.426 162.076L121.936 165.444L123.248 162.441Z" fill="white"/>
<path d="M149.63 154.351L151.334 153.972L148.371 159.776L146.667 160.155L149.63 154.351Z" fill="white"/>
<path d="M152.498 153.728L154.202 153.35L151.24 159.154L149.535 159.532L152.498 153.728Z" fill="white"/>
<path d="M155.447 153.079L157.151 152.714L154.202 158.518L152.498 158.883L155.447 153.079Z" fill="white"/>
<path d="M174.82 130.811C173.521 129.471 171.911 128.619 169.977 128.24L168.191 133.327C168.773 133.422 169.327 133.625 169.869 133.936C170.396 134.247 170.843 134.639 171.208 135.126C171.573 135.613 171.817 136.182 171.966 136.831C172.141 137.629 172.101 138.441 171.857 139.293C171.614 140.146 171.154 140.89 170.477 141.539C169.801 142.188 168.935 142.621 167.893 142.851L156.421 145.354L157.571 150.644L169.814 147.979C171.587 147.586 173.129 146.775 174.428 145.503C175.727 144.245 176.647 142.73 177.174 140.984C177.702 139.226 177.783 137.44 177.377 135.627C176.971 133.814 176.119 132.163 174.834 130.824L174.82 130.811Z" fill="white"/>
<path d="M159.803 141.823L161.63 136.736C161.021 136.628 160.453 136.412 159.938 136.114C159.424 135.816 158.978 135.41 158.613 134.923C158.247 134.423 158.004 133.868 157.855 133.232C157.679 132.434 157.72 131.622 157.963 130.77C158.207 129.918 158.667 129.174 159.343 128.524C160.02 127.875 160.885 127.442 161.927 127.212L173.4 124.709L172.25 119.419L160.006 122.084C158.207 122.477 156.664 123.302 155.379 124.56C154.094 125.818 153.174 127.32 152.646 129.079C152.119 130.838 152.038 132.623 152.443 134.436C152.849 136.249 153.688 137.873 154.973 139.226C156.259 140.578 157.869 141.444 159.803 141.823Z" fill="white"/>
</g>
<defs>
<clipPath id="clip0_141_6225">
<rect width="262" height="275.786" fill="white"/>
</clipPath>
</defs>
</svg>
