<?xml version="1.0" encoding="UTF-8"?>
<svg id="_レイヤー_2" data-name="レイヤー 2" xmlns="http://www.w3.org/2000/svg" viewBox="0 0 31.96 42.82">
  <g id="_メイン" data-name="メイン">
    <path d="m31.65,14.73C27.56,8.81,22.5,3.93,16.98.3c-.6-.4-1.39-.4-1.99,0C9.46,3.93,4.4,8.81.32,14.73c-.68.99-.22,2.36.92,2.74l3.66,1.22c.7.23,1.19.87,1.23,1.6.33,6.06-2.89,9.84-2.89,15.95,0,1.34,3.98,6.57,5.73,6.57,1.48,0,4.67-4.9,4.67-6.56,0-1.24-1.39-3.86-2.09-5.11-.21-.37-.05-.84.33-1.01h0c.27-.12.58-.07.8.13l1.17,1.11c.31.3.81.26,1.07-.08l.47-.62c.29-.38.86-.38,1.15,0l.47.62c.26.34.76.38,1.07.08l1.17-1.11c.21-.2.53-.26.8-.13h0c.39.18.54.64.33,1.01-.7,1.25-2.09,3.87-2.09,5.11,0,1.65,3.19,6.56,4.67,6.56,1.75,0,5.73-5.23,5.73-6.57,0-6.11-3.22-9.88-2.89-15.95.04-.74.53-1.37,1.23-1.6l3.66-1.22c1.14-.38,1.6-1.75.92-2.74Z"/>
  </g>
</svg>